<svg width="700" height="469" viewBox="0 0 700 469" fill="none" xmlns="http://www.w3.org/2000/svg">
<rect y="376.811" width="23.271" height="23.271" rx="11.6355" fill="white"/>
<rect x="37.5913" y="376.811" width="23.271" height="37.5916" rx="11.6355" fill="white"/>
<rect x="75.1831" y="375.916" width="23.271" height="50.1221" rx="11.6355" fill="white"/>
<rect x="112.775" y="370.546" width="23.271" height="59.0725" rx="11.6355" fill="white"/>
<rect x="150.366" y="366.071" width="23.271" height="67.1279" rx="11.6355" fill="white"/>
<rect x="187.958" y="360.7" width="23.271" height="80.5534" rx="11.6355" fill="white"/>
<rect x="225.549" y="357.12" width="23.271" height="85.9237" rx="11.6355" fill="white"/>
<rect x="263.141" y="351.75" width="23.271" height="91.2939" rx="11.6355" fill="white"/>
<rect x="300.733" y="348.17" width="23.271" height="91.2939" rx="11.6355" fill="white"/>
<rect x="338.324" y="341.905" width="23.271" height="101.139" rx="11.6355" fill="white"/>
<rect x="375.916" y="337.429" width="23.271" height="110.985" rx="11.6355" fill="white"/>
<rect x="413.507" y="331.164" width="23.271" height="115.46" rx="11.6355" fill="white"/>
<rect x="451.099" y="324.899" width="23.271" height="119.935" rx="11.6355" fill="white"/>
<rect x="488.691" y="320.424" width="23.271" height="126.2" rx="11.6355" fill="white"/>
<rect x="526.282" y="313.263" width="23.271" height="126.2" rx="11.6355" fill="white"/>
<rect x="601.465" y="305.208" width="23.271" height="96.6641" rx="11.6355" fill="white"/>
<rect x="639.057" y="298.943" width="23.271" height="66.2328" rx="11.6355" fill="white"/>
<rect x="676.649" y="297.153" width="23.271" height="31.3263" rx="11.6355" fill="white"/>
<rect x="563.874" y="308.788" width="23.271" height="126.2" rx="11.6355" fill="white"/>
<rect x="338.324" width="23.271" height="215.704" rx="11.6355" fill="white"/>
<rect x="375.021" y="106.51" width="23.271" height="212.124" rx="11.6355" fill="white"/>
<rect x="301.628" y="191.538" width="23.271" height="137.836" rx="11.6355" fill="#9D9D9D"/>
<rect x="264.931" y="279.252" width="23.271" height="50.1221" rx="11.6355" fill="#9D9D9D"/>
<rect x="228.234" y="307.893" width="23.271" height="23.271" rx="11.6355" fill="#9D9D9D"/>
<rect x="411.717" y="168.267" width="23.271" height="146.786" rx="11.6355" fill="white"/>
<rect x="451.099" y="215.704" width="23.271" height="93.084" rx="11.6355" fill="white"/>
<rect x="488.691" y="245.24" width="23.271" height="59.9676" rx="11.6355" fill="white"/>
<rect x="526.282" y="269.406" width="23.271" height="32.2214" rx="11.6355" fill="white"/>
<rect x="563.874" y="274.777" width="23.271" height="23.271" rx="11.6355" fill="white"/>
</svg>
